<svg width="16" height="14" viewBox="0 0 16 14" fill="none" xmlns="http://www.w3.org/2000/svg">
<path d="M0.266294 6.37062L6.62999 0.245623C6.80145 0.0862349 7.03109 -0.00196054 7.26945 3.30771e-05C7.50782 0.00202669 7.73583 0.0940497 7.90439 0.256282C8.07294 0.418514 8.16855 0.637975 8.17062 0.867397C8.17269 1.09682 8.08106 1.31785 7.91546 1.48287L3.1036 6.11425H15.091C15.3321 6.11425 15.5634 6.20643 15.7339 6.37053C15.9043 6.53462 16.0001 6.75718 16.0001 6.98925C16.0001 7.22131 15.9043 7.44387 15.7339 7.60797C15.5634 7.77206 15.3321 7.86425 15.091 7.86425H3.1036L7.91546 12.4956C8.00229 12.5763 8.07155 12.6729 8.11919 12.7796C8.16684 12.8864 8.19191 13.0012 8.19296 13.1174C8.19401 13.2336 8.17101 13.3488 8.1253 13.4563C8.07959 13.5639 8.01209 13.6616 7.92673 13.7437C7.84137 13.8259 7.73987 13.8908 7.62814 13.9348C7.51642 13.9788 7.39671 14.001 7.276 14C7.15529 13.999 7.036 13.9748 6.92508 13.929C6.81417 13.8831 6.71385 13.8164 6.62999 13.7329L0.266294 7.60787C0.0958643 7.44379 0.00012207 7.22127 0.00012207 6.98925C0.00012207 6.75723 0.0958643 6.53471 0.266294 6.37062Z" fill="white"/>
</svg>
