<svg width="18" height="24" viewBox="0 0 18 24" fill="none" xmlns="http://www.w3.org/2000/svg">
<path d="M0.961152 15.6503H7.22266L5.96359 22.8235C5.92505 23.0436 5.95886 23.2708 6.0596 23.4685C6.16034 23.6663 6.32216 23.8232 6.51909 23.914C6.71602 24.0048 6.93665 24.0244 7.14555 23.9695C7.35446 23.9145 7.53953 23.7883 7.67106 23.6111L17.8005 9.95649C17.9101 9.80881 17.9775 9.63225 17.9954 9.4468C18.0132 9.26135 17.9806 9.07442 17.9014 8.90719C17.8221 8.73995 17.6994 8.5991 17.547 8.50057C17.3946 8.40205 17.2186 8.34979 17.0391 8.34971H10.7776L12.0367 1.17648C12.0752 0.956385 12.0414 0.729231 11.9406 0.531476C11.8399 0.333721 11.6781 0.176832 11.4812 0.0859914C11.2842 -0.00484958 11.0636 -0.0243752 10.8547 0.0305482C10.6458 0.0854717 10.4607 0.211659 10.3292 0.388858L0.199711 14.0435C0.0901922 14.1912 0.0226979 14.3678 0.00487268 14.5532C-0.0129525 14.7387 0.0196036 14.9256 0.0988537 15.0928C0.178104 15.26 0.300881 15.4009 0.453281 15.4994C0.605681 15.598 0.781613 15.6502 0.961152 15.6503ZM9.43468 4.86589L8.67901 9.16887C8.65377 9.31273 8.65929 9.46058 8.69517 9.60198C8.73106 9.74338 8.79644 9.87486 8.88669 9.98713C8.97694 10.0994 9.08986 10.1897 9.21744 10.2517C9.34503 10.3136 9.48418 10.3457 9.62504 10.3457H15.0851L8.56556 19.1341L9.32123 14.8311C9.34648 14.6873 9.34096 14.5394 9.30507 14.398C9.26918 14.2566 9.2038 14.1251 9.11355 14.0129C9.0233 13.9006 8.91039 13.8103 8.7828 13.7483C8.65521 13.6864 8.51606 13.6543 8.3752 13.6543H2.91513L9.43468 4.86589Z" fill="white"/>
</svg>
