<svg width="16" height="14" viewBox="0 0 16 14" fill="none" xmlns="http://www.w3.org/2000/svg">
<path d="M15.7339 6.37062L9.37025 0.245623C9.19879 0.0862349 8.96915 -0.00196054 8.73079 3.30771e-05C8.49243 0.00202669 8.26441 0.0940497 8.09586 0.256282C7.9273 0.418514 7.8317 0.637975 7.82962 0.867397C7.82755 1.09682 7.91918 1.31785 8.08478 1.48287L12.8966 6.11425H0.909222C0.668113 6.11425 0.43688 6.20643 0.266391 6.37053C0.0959015 6.53462 0.00012207 6.75718 0.00012207 6.98925C0.00012207 7.22131 0.0959015 7.44387 0.266391 7.60797C0.43688 7.77206 0.668113 7.86425 0.909222 7.86425H12.8966L8.08478 12.4956C7.99796 12.5763 7.9287 12.6729 7.88105 12.7796C7.83341 12.8864 7.80833 13.0012 7.80728 13.1174C7.80623 13.2336 7.82923 13.3488 7.87494 13.4563C7.92066 13.5639 7.98816 13.6616 8.07352 13.7437C8.15887 13.8259 8.26038 13.8908 8.3721 13.9348C8.48383 13.9788 8.60354 14.001 8.72425 14C8.84496 13.999 8.96425 13.9748 9.07516 13.929C9.18608 13.8831 9.28639 13.8164 9.37025 13.7329L15.7339 7.60787C15.9044 7.44379 16.0001 7.22127 16.0001 6.98925C16.0001 6.75723 15.9044 6.53471 15.7339 6.37062Z" fill="white"/>
</svg>
